<svg xmlns="http://www.w3.org/2000/svg" width="62.056" height="62.055" viewBox="0 0 62.056 62.055">
  <g id="SVGRepo_iconCarrier" transform="translate(0)">
    <g id="trophy" transform="translate(0)">
      <g id="Group_2730" data-name="Group 2730">
        <path id="Path_16" data-name="Path 16" d="M51.713,62.055H10.343V46.542h5.43a14.669,14.669,0,0,1,4.654-8.533,18.847,18.847,0,0,1-5.688-6.981h-1.81C5.43,31.028,0,25.856,0,18.875V5.171H12.928V0h36.2V5.171H62.056v13.7c0,6.981-5.43,12.153-12.928,12.153h-1.81a17.645,17.645,0,0,1-5.688,6.723,14.7,14.7,0,0,1,4.654,8.791h5.171V62.055Zm-36.2-5.171H46.542V51.713H15.514Zm5.43-10.343H41.112a11.972,11.972,0,0,0-4.4-6.206,17.171,17.171,0,0,1-11.377,0A11.972,11.972,0,0,0,20.944,46.542ZM18.1,5.171v18.1a12.928,12.928,0,0,0,25.857,0V5.171ZM48.869,25.856h0c4.654,0,8.016-2.844,8.016-6.981V10.343H49.128V23.271A8.8,8.8,0,0,1,48.869,25.856ZM5.171,10.343v8.533c0,4.137,3.361,6.981,7.757,6.981h.259c0-.776-.259-1.81-.259-2.586V10.343Z" fill="#fcb514"/>
      </g>
    </g>
  </g>
</svg>
