<svg id="SVGRepo_iconCarrier" xmlns="http://www.w3.org/2000/svg" width="54.042" height="67.049" viewBox="0 0 54.042 67.049">
  <g id="Group_2729" data-name="Group 2729" transform="translate(0 0)">
    <path id="Path_12" data-name="Path 12" d="M34.8,43.532a6.179,6.179,0,0,1,5.552-3.2c2.449-.029,3.685-1.276,3.725-3.731a6.167,6.167,0,0,1,3.2-5.54c2.1-1.256,2.561-2.945,1.362-5.084a6.181,6.181,0,0,1,0-6.406c1.2-2.133.746-3.82-1.362-5.076a6.185,6.185,0,0,1-3.2-5.557c-.04-2.443-1.276-3.69-3.725-3.719a6.19,6.19,0,0,1-5.552-3.2Q32.92-1.144,29.726.651a6.181,6.181,0,0,1-6.406,0q-3.2-1.794-5.081,1.362a6.174,6.174,0,0,1-5.549,3.2C10.247,5.245,9,6.492,8.971,8.936a6.21,6.21,0,0,1-3.2,5.557c-2.1,1.256-2.566,2.939-1.362,5.076a6.156,6.156,0,0,1,0,6.406Q2.6,29.183,5.768,31.058a6.177,6.177,0,0,1,3.2,5.54C9,39.05,10.247,40.3,12.69,40.329a6.179,6.179,0,0,1,5.552,3.2q1.884,3.157,5.078,1.356a6.232,6.232,0,0,1,6.406,0Q32.926,46.691,34.8,43.532Zm-8.276-7.361a13.4,13.4,0,1,1,13.4-13.4A13.4,13.4,0,0,1,26.529,36.171Z" transform="translate(0.501 0)" fill="#fcb514"/>
    <path id="Path_13" data-name="Path 13" d="M15.244,15.53c-2.575,0-2.919-1.2-2.919-1.2L2.268,34.1l8.064-.906,4.459,6.71s9.291-19.384,9.291-19.255C19.267,20.525,21.182,15.659,15.244,15.53Z" transform="translate(-2.268 26.764)" fill="#fcb514"/>
    <path id="Path_14" data-name="Path 14" d="M25.3,14.6c-7.347.768-5.853,2.592-7.533,4.009a5.171,5.171,0,0,1-4.347,1.657L24.761,39.781l2.79-7.226,7.932,1.035Z" transform="translate(18.559 27.268)" fill="#fcb514"/>
    <path id="Path_15" data-name="Path 15" d="M20.413,10.607l-2.8-5.678L14.8,10.607l-6.277.918,4.536,4.425-1.07,6.257,5.618-2.951,5.618,2.951-1.07-6.257,4.536-4.425Z" transform="translate(9.415 9.206)" fill="#fcb514"/>
  </g>
</svg>
